<?xml version="1.0" encoding="utf-8"?>
<!-- Generator: Adobe Illustrator 25.1.0, SVG Export Plug-In . SVG Version: 6.00 Build 0)  -->
<svg version="1.1" id="Layer_1" xmlns="http://www.w3.org/2000/svg" xmlns:xlink="http://www.w3.org/1999/xlink" x="0px" y="0px"
	 viewBox="0 0 48 48" style="enable-background:new 0 0 48 48;" xml:space="preserve">
<style type="text/css">
	.st0{fill:#273F6A;}
</style>
<path class="st0" d="M6,6v36h36V6H6z M20.5,32.6l-2.3-6l-2.3,6h-4L16,24l-4-8.5h3.9l2.3,5.9l2.3-5.9h4l-4,8.5l4.1,8.6H20.5z
	 M35.3,32.6h-3l-0.2-1.3c-0.7,1-1.6,1.5-2.6,1.5c-1.3,0-2.3-0.5-3-1.5s-1.1-2.5-1.1-4.5v-1c0-2.1,0.4-3.6,1.1-4.7s1.7-1.5,3.1-1.5
	c1,0,1.8,0.4,2.4,1.3v-6.4h3.3L35.3,32.6L35.3,32.6z M30.5,22.5c-0.6,0-1.1,0.2-1.3,0.7s-0.4,1.4-0.4,2.6v0.9c0,1.2,0.1,2.1,0.4,2.6
	s0.7,0.7,1.3,0.7c0.7,0,1.2-0.3,1.5-0.9v-5.8C31.6,22.8,31.1,22.5,30.5,22.5z"/>
</svg>
