<?xml version="1.0" encoding="utf-8"?>
<!-- Generator: Adobe Illustrator 25.1.0, SVG Export Plug-In . SVG Version: 6.00 Build 0)  -->
<svg version="1.1" id="Layer_1" xmlns="http://www.w3.org/2000/svg" xmlns:xlink="http://www.w3.org/1999/xlink" x="0px" y="0px"
	 viewBox="0 0 26 26" style="enable-background:new 0 0 26 26;" xml:space="preserve">
<style type="text/css">
	.st0{fill:#808080;}
</style>
<path class="st0" d="M6.1,2C3.9,2,2,3.9,2,6.1v13.7C2,22.1,3.9,24,6.1,24h13.7c2.3,0,4.1-1.9,4.1-4.1V6.1C24,3.9,22.1,2,19.9,2H6.1z
	 M16.4,7.5c0.3,0,0.6,0.1,0.8,0.3c0.2,0.2,0.3,0.4,0.3,0.8s-0.1,0.6-0.3,0.8c-0.2,0.2-0.5,0.3-0.8,0.3s-0.6-0.1-0.8-0.3
	c-0.2-0.2-0.3-0.4-0.3-0.7c0-0.3,0.1-0.5,0.3-0.8C15.8,7.6,16,7.5,16.4,7.5z M10.8,7.6h1.4c0.1,0,0.1,0,0.1,0.1l2.7,9.5
	c0,0,0,0,0,0.1s-0.1,0.1-0.1,0.1h-1.8c-0.1,0-0.1,0-0.1-0.1l-0.6-2.1h-2l-0.6,2.1c0,0.1,0,0.1-0.1,0.1H8c0,0-0.1,0-0.1-0.1l0,0
	l2.7-9.6C10.7,7.6,10.8,7.6,10.8,7.6z M15.6,10.4h1.6c0.1,0,0.1,0.1,0.1,0.1v6.8c0,0.1-0.1,0.1-0.1,0.1h-1.6c-0.1,0-0.1-0.1-0.1-0.1
	L15.6,10.4C15.5,10.4,15.5,10.4,15.6,10.4z M11.5,10.5l-0.2,0.9l-0.5,2.1h1.3l-0.5-2.1L11.5,10.5z"/>
</svg>
