<?xml version="1.0" encoding="utf-8"?>
<!-- Generator: Adobe Illustrator 25.1.0, SVG Export Plug-In . SVG Version: 6.00 Build 0)  -->
<svg version="1.1" id="Layer_1" xmlns="http://www.w3.org/2000/svg" xmlns:xlink="http://www.w3.org/1999/xlink" x="0px" y="0px"
	 viewBox="0 0 100 100" style="enable-background:new 0 0 100 100;" xml:space="preserve">
<style type="text/css">
	.st0{fill:#273F6A;}
</style>
<path class="st0" d="M51.6,10c-0.4,0-0.8,0-1.2,0c-1.6,0.2-3,1-4,2.2c-2.1,2.6-1.7,6.4,0.9,8.4l6.6,5.3h-34c-3.3,0-6,2.7-6,6
	s2.7,6,6,6h14.9L6.3,61c-1.3,1-2.1,2.5-2.3,4.2c-0.2,1.7,0.3,3.3,1.3,4.6s2.5,2.1,4.2,2.3c1.7,0.2,3.3-0.3,4.6-1.3L28,59.5
	C29.2,75.4,43.9,88,61.9,88c18.7,0,34-13.7,34-30.5c0-10.4-5.8-20-15.6-25.6L54.8,11.3C53.9,10.6,52.7,10.1,51.6,10z M61.9,40
	c9.9,0,18,6.7,18,15s-8.1,15-18,15s-18-6.7-18-15S52,40,61.9,40z M61.9,44c-6.6,0-12,4.5-12,10s5.4,10,12,10s12-4.5,12-10
	S68.5,44,61.9,44z"/>
</svg>
