<?xml version="1.0" encoding="utf-8"?>
<!-- Generator: Adobe Illustrator 25.1.0, SVG Export Plug-In . SVG Version: 6.00 Build 0)  -->
<svg version="1.1" id="Layer_1" xmlns="http://www.w3.org/2000/svg" xmlns:xlink="http://www.w3.org/1999/xlink" x="0px" y="0px"
	 viewBox="0 0 32 32" style="enable-background:new 0 0 32 32;" xml:space="preserve">
<style type="text/css">
	.st0{fill:#808080;}
</style>
<path class="st0" d="M12.5,1C9.5,1,7,3.5,7,6.5c0,1.7,0.7,3.1,1.9,4.2C7.2,11.6,6,13.4,6,15.5C6,17.4,6.9,19,8.3,20
	C6.9,21,6,22.6,6,24.5c0,3,2.5,5.5,5.5,5.5s5.5-2.5,5.5-5.5V19v-7h3.5c3,0,5.5-2.5,5.5-5.5S23.5,1,20.5,1H12.5z M12.5,3h8
	C22.4,3,24,4.6,24,6.5S22.4,10,20.5,10H17h-4.5C10.6,10,9,8.4,9,6.5S10.6,3,12.5,3z M11.5,12h1H15v7h-3.5C9.6,19,8,17.4,8,15.5
	S9.6,12,11.5,12z M21,12c-2.2,0-4,1.8-4,4s1.8,4,4,4s4-1.8,4-4S23.2,12,21,12z M11.5,21H15v3.5c0,1.9-1.6,3.5-3.5,3.5S8,26.4,8,24.5
	S9.6,21,11.5,21z"/>
</svg>
