<?xml version="1.0" encoding="utf-8"?>
<!-- Generator: Adobe Illustrator 25.1.0, SVG Export Plug-In . SVG Version: 6.00 Build 0)  -->
<svg version="1.1" id="Layer_1" xmlns="http://www.w3.org/2000/svg" xmlns:xlink="http://www.w3.org/1999/xlink" x="0px" y="0px"
	 viewBox="0 0 50 50" style="enable-background:new 0 0 50 50;" xml:space="preserve">
<style type="text/css">
	.st0{fill:#808080;}
</style>
<path class="st0" d="M45.3,2.3C45.1,2.1,44.8,2,44.5,2h-39C5.2,2,4.9,2.1,4.7,2.3C4.5,2.5,4.4,2.8,4.5,3.1L8,42.5
	c0,0.4,0.3,0.8,0.7,0.9l16,4.6c0.1,0,0.2,0,0.3,0s0.2,0,0.3,0l16-4.6c0.4-0.1,0.7-0.5,0.7-0.9l3.5-39.4C45.6,2.8,45.5,2.5,45.3,2.3z
	 M36.8,15.9H18l0.4,5.1h17.9L35,36l-10.1,3h-0.1L15,36l-0.5-6.1h4.9l0.2,2.4l5.6,1.2l5.5-1.2l0.6-6.4H14l-1.3-14.8h24.6L36.8,15.9z"
	/>
</svg>
