<?xml version="1.0" encoding="utf-8"?>
<!-- Generator: Adobe Illustrator 25.1.0, SVG Export Plug-In . SVG Version: 6.00 Build 0)  -->
<svg version="1.1" id="Layer_1" xmlns="http://www.w3.org/2000/svg" xmlns:xlink="http://www.w3.org/1999/xlink" x="0px" y="0px"
	 viewBox="0 0 50 50" style="enable-background:new 0 0 50 50;" xml:space="preserve">
<style type="text/css">
	.st0{fill:#808080;}
</style>
<path class="st0" d="M43.3,4H6.7C5.2,4,4,5.2,4,6.7v36.7C4,44.8,5.2,46,6.7,46h36.7c1.5,0,2.7-1.2,2.7-2.7V6.7C46,5.2,44.8,4,43.3,4
	z M27,36.2c0,4-2.3,5.8-5.8,5.8c-3.1,0-5.3-2.1-6.2-4l3.1-1.9c0.6,1.1,1.5,1.9,2.9,1.9c1.3,0,2-0.5,2-2.4V23h4V36.2z M35.7,42
	c-3.5,0-5.6-1.8-6.7-4l3-2c0.8,1.3,1.7,2.6,3.6,2.6c1.6,0,2.4-0.8,2.4-1.9c0-1.3-0.9-1.8-2.6-2.5l-1-0.4c-2.8-1.2-4.6-2.6-4.6-5.8
	c0-2.9,2.2-5,5.6-5c2.4,0,4.2,0.8,5.4,3.1l-3,1.9c-0.7-1.2-1.4-1.6-2.5-1.6s-1.8,0.7-1.8,1.6c0,1.1,0.7,1.6,2.3,2.3l1,0.4
	c3.2,1.4,5.1,2.8,5.1,6C42,40.1,39.3,42,35.7,42z"/>
</svg>
