<?xml version="1.0" encoding="utf-8"?>
<!-- Generator: Adobe Illustrator 25.1.0, SVG Export Plug-In . SVG Version: 6.00 Build 0)  -->
<svg version="1.1" id="Layer_1" xmlns="http://www.w3.org/2000/svg" xmlns:xlink="http://www.w3.org/1999/xlink" x="0px" y="0px"
	 viewBox="0 0 32 32" style="enable-background:new 0 0 32 32;" xml:space="preserve">
<style type="text/css">
	.st0{fill:#808080;}
</style>
<path class="st0" d="M21.3,6C21.1,6,21,6.1,21,6.3v5.5l-1.2-0.7c-0.1,0-0.2-0.1-0.3-0.1s-0.2,0-0.3,0.1l-3,1.7
	c-0.2,0.1-0.3,0.3-0.3,0.4v3.5c0,0.2,0.1,0.3,0.3,0.4l3,1.7c0.1,0,0.2,0.1,0.3,0.1s0.2,0,0.3-0.1l3-1.7c0.2-0.1,0.3-0.3,0.3-0.4V15
	v-1.7v-6c0-0.2-0.1-0.3-0.2-0.4L21.4,6C21.4,6,21.4,6,21.3,6z M11.5,11c-0.1,0-0.2,0-0.3,0.1l-3,1.7C8.1,12.9,8,13.1,8,13.3v3.5
	c0,0.2,0.1,0.3,0.3,0.4l3,1.7c0.2,0.1,0.4,0.1,0.5,0l3-1.7c0.2-0.1,0.3-0.3,0.3-0.4v-3.5c0-0.2-0.1-0.3-0.3-0.4l-3-1.7
	C11.7,11,11.6,11,11.5,11z M27.5,11c-0.1,0-0.2,0-0.3,0.1l-3,1.7c-0.2,0.1-0.3,0.3-0.3,0.4v3.5c0,0.2,0.1,0.3,0.3,0.4l2.9,1.8
	c0.2,0.1,0.4,0.1,0.5,0l1.4-0.8c0.1-0.1,0.1-0.3,0-0.4l-3-1.8v-1.8l1.5-0.9l1.5,0.9v1.2c0,0.2,0.1,0.2,0.2,0.1
	c0.4-0.2,1.5-0.9,1.5-0.9c0.2-0.1,0.2-0.3,0.2-0.4v-0.9c0-0.2-0.1-0.3-0.3-0.4l-3-1.7C27.7,11,27.6,11,27.5,11z M3.5,11
	c-0.1,0-0.2,0-0.3,0.1l-3,1.7C0.1,12.9,0,13.1,0,13.3v4.5C0,18,0.2,18.2,0.4,18l1.3-0.8C1.9,17.1,2,16.9,2,16.8v-2.6l1.5-0.9L5,14.1
	v2.6c0,0.2,0.1,0.3,0.2,0.4L6.6,18C6.8,18.1,7,18,7,17.8v-4.5c0-0.2-0.1-0.3-0.3-0.4l-3-1.7C3.7,11,3.6,11,3.5,11z M19.5,13.2
	l1.5,0.9V15v0.9l-1.5,0.9L18,15.9v-1.8L19.5,13.2z M27.5,14l-0.9,0.5v1l0.9,0.5l0.9-0.5v-1L27.5,14z M15.4,18c-0.1,0-0.2,0-0.3,0.1
	l-2.8,1.6C12.1,19.8,12,20,12,20.2v3.2c0,0.2,0.1,0.4,0.3,0.5l0.7,0.4c0.4,0.2,0.5,0.2,0.6,0.2c0.5,0,0.8-0.3,0.8-0.9v-3.2
	c0,0,0-0.1-0.1-0.1h-0.4c0,0-0.1,0-0.1,0.1v3.2c0,0.2-0.3,0.5-0.7,0.3l-0.8-0.4c0,0,0,0,0-0.1v-3.2v-0.1l2.8-1.6h0.1l2.8,1.6
	c0,0,0,0,0,0.1v3.2v0.1l-2.8,1.6h-0.1l-0.7-0.4c0,0,0,0-0.1,0c-0.2,0.1-0.2,0.1-0.4,0.2c0,0-0.1,0,0,0.1l0.9,0.6
	c0.1,0,0.2,0.1,0.3,0.1s0.2,0,0.3-0.1l2.8-1.6c0.2-0.1,0.3-0.3,0.3-0.5v-3.2c0-0.2-0.1-0.4-0.3-0.5l-2.8-1.6
	C15.6,18,15.5,18,15.4,18z M19.8,19.5c-0.3,0-0.5,0.2-0.5,0.5s0.2,0.5,0.5,0.5s0.5-0.2,0.5-0.5S20.1,19.5,19.8,19.5z M19.8,19.6
	c0.3,0,0.5,0.2,0.5,0.5c0,0.2-0.2,0.5-0.5,0.5c-0.2,0-0.5-0.2-0.5-0.5S19.5,19.6,19.8,19.6z M19.6,19.7v0.6h0.1v-0.2h0.1
	c0,0,0.1,0,0.1,0.1v0.2H20c0,0,0-0.1,0-0.2s0-0.1-0.1-0.1c0,0,0.1,0,0.1-0.2s-0.1-0.2-0.2-0.2C19.8,19.7,19.6,19.7,19.6,19.7z
	 M19.7,19.8L19.7,19.8c0.1,0,0.2,0,0.2,0.1c0,0,0,0.1-0.1,0.1h-0.1V19.8z M16.2,20.3c-0.8,0-1.3,0.3-1.3,0.9s0.5,0.8,1.2,0.9
	c0.9,0.1,1,0.2,1,0.4c0,0.3-0.3,0.4-0.8,0.4c-0.7,0-0.9-0.2-1-0.6c0,0,0-0.1-0.1-0.1h-0.4c0,0-0.1,0-0.1,0.1c0,0.5,0.3,1,1.5,1
	c0.9,0,1.4-0.4,1.4-1s-0.4-0.8-1.3-0.9s-1-0.2-1-0.4c0-0.2,0.1-0.4,0.7-0.4s0.8,0.1,0.9,0.5c0,0,0,0.1,0.1,0.1h0.4c0,0,0,0,0.1,0
	c0,0,0,0,0-0.1C17.5,20.6,17.1,20.3,16.2,20.3z"/>
</svg>
