<?xml version="1.0" encoding="utf-8"?>
<!-- Generator: Adobe Illustrator 25.1.0, SVG Export Plug-In . SVG Version: 6.00 Build 0)  -->
<svg version="1.1" id="Layer_1" xmlns="http://www.w3.org/2000/svg" xmlns:xlink="http://www.w3.org/1999/xlink" x="0px" y="0px"
	 viewBox="0 0 30 30" style="enable-background:new 0 0 30 30;" xml:space="preserve">
<style type="text/css">
	.st0{fill:#808080;}
</style>
<path class="st0" d="M6,4C4.9,4,4,4.9,4,6v18c0,1.1,0.9,2,2,2h18c1.1,0,2-0.9,2-2V6c0-1.1-0.9-2-2-2H6z M8,10h4c2,0,3.3,1.3,3.3,3.3
	s-1.4,3.3-3.4,3.3H9.8v3.2H8V10z M9.8,11.5v3.7h1.7c1.3,0,2-0.7,2-1.8c0-1.2-0.7-1.9-2-1.9H9.8z M19.2,12.2c1.8,0,2.9,0.8,3,2.1
	h-1.6c-0.1-0.5-0.6-0.9-1.4-0.9s-1.4,0.4-1.4,0.9c0,0.4,0.4,0.7,1.1,0.9l1.3,0.3c1.4,0.3,2.1,0.9,2.1,2c0,1.4-1.3,2.4-3.2,2.4
	c-1.9,0-3-0.8-3.2-2.2h1.7c0.2,0.6,0.7,0.9,1.5,0.9c0.9,0,1.4-0.4,1.4-0.9c0-0.4-0.3-0.7-1-0.8l-1.3-0.3c-1.4-0.3-2.1-1-2.1-2.1
	C16.2,13.2,17.4,12.2,19.2,12.2z"/>
</svg>
