<?xml version="1.0" encoding="utf-8"?>
<!-- Generator: Adobe Illustrator 25.1.0, SVG Export Plug-In . SVG Version: 6.00 Build 0)  -->
<svg version="1.1" id="Layer_1" xmlns="http://www.w3.org/2000/svg" xmlns:xlink="http://www.w3.org/1999/xlink" x="0px" y="0px"
	 viewBox="0 0 30 30" style="enable-background:new 0 0 30 30;" xml:space="preserve">
<style type="text/css">
	.st0{fill:#273F6A;}
</style>
<path class="st0" d="M10.7,4.2c-0.6,0-1.2,0.1-1.7,0.4c-1.6,0.9-2.2,3.1-1.8,5.9C4.6,11.6,3,13.2,3,15s1.6,3.4,4.2,4.5
	c-0.3,2.7,0.3,5,1.8,5.9c0.5,0.3,1.1,0.4,1.7,0.4c1.3,0,2.8-0.7,4.3-1.8c1.5,1.1,3,1.8,4.3,1.8c0.6,0,1.2-0.1,1.7-0.4
	c1.6-0.9,2.2-3.1,1.8-5.9c2.5-1.1,4.1-2.7,4.1-4.5c0-1.8-1.6-3.4-4.2-4.5c0.3-2.7-0.3-5-1.8-5.9c-0.5-0.3-1.1-0.4-1.7-0.4
	C18,4.2,16.5,4.8,15,6C13.5,4.8,12,4.2,10.7,4.2z M10.7,5.9c0.8,0,1.8,0.4,2.9,1.2c-0.7,0.6-1.3,1.3-1.9,2.1c-1,0.1-2,0.4-2.8,0.6
	c0-0.1,0-0.1,0-0.2c-0.1-1.8,0.3-3.1,1-3.5C10.1,6,10.4,5.9,10.7,5.9z M19.3,5.9c0.3,0,0.6,0.1,0.8,0.2c0.8,0.4,1.2,1.8,1,3.5
	c0,0.1,0,0.1,0,0.2c-0.9-0.3-1.8-0.5-2.8-0.6c-0.6-0.8-1.3-1.5-1.9-2.1C17.5,6.3,18.5,5.9,19.3,5.9z M15,8.2
	c0.3,0.2,0.5,0.5,0.8,0.8c-0.3,0-0.5,0-0.8,0c-0.3,0-0.5,0-0.8,0C14.5,8.7,14.7,8.5,15,8.2z M15,10.8c0.8,0,1.6,0,2.4,0.1
	c0.5,0.6,0.9,1.3,1.3,2c0.4,0.7,0.8,1.4,1.1,2.1c-0.3,0.7-0.7,1.4-1.1,2.1c-0.4,0.7-0.9,1.4-1.3,2c-0.8,0.1-1.6,0.1-2.4,0.1
	c-0.8,0-1.6,0-2.4-0.1c-0.5-0.6-0.9-1.3-1.3-2c-0.4-0.7-0.8-1.4-1.1-2.1c0.3-0.7,0.7-1.4,1.1-2.1c0.4-0.7,0.9-1.4,1.3-2
	C13.4,10.8,14.2,10.8,15,10.8z M19.7,11.3c0.4,0.1,0.8,0.2,1.1,0.3c-0.1,0.4-0.2,0.7-0.3,1.1c-0.1-0.2-0.3-0.5-0.4-0.7
	C20.1,11.8,19.9,11.5,19.7,11.3z M10.3,11.3c-0.1,0.2-0.3,0.5-0.4,0.7c-0.1,0.2-0.3,0.5-0.4,0.7c-0.1-0.4-0.2-0.8-0.3-1.1
	C9.5,11.5,9.9,11.4,10.3,11.3z M7.5,12.2C7.7,13.1,8,14.1,8.3,15c-0.4,0.9-0.7,1.9-0.9,2.7c-1.7-0.8-2.7-1.9-2.7-2.7
	c0-0.9,1-1.9,2.5-2.7C7.4,12.3,7.4,12.3,7.5,12.2z M22.5,12.3c1.7,0.8,2.7,1.9,2.7,2.7c0,0.9-1,1.9-2.5,2.7c-0.1,0-0.1,0-0.2,0.1
	c-0.2-0.9-0.5-1.8-0.9-2.8C22,14.1,22.3,13.1,22.5,12.3z M15,13c-1.1,0-2,0.9-2,2s0.9,2,2,2s2-0.9,2-2S16.1,13,15,13z M9.4,17.3
	c0.1,0.2,0.3,0.5,0.4,0.7c0.1,0.2,0.3,0.5,0.4,0.7c-0.4-0.1-0.8-0.2-1.1-0.3C9.2,18,9.3,17.7,9.4,17.3z M20.6,17.3
	c0.1,0.4,0.2,0.8,0.3,1.1c-0.4,0.1-0.7,0.2-1.1,0.3c0.1-0.2,0.3-0.5,0.4-0.7C20.3,17.8,20.5,17.5,20.6,17.3z M8.8,20.1
	c0.9,0.3,1.8,0.5,2.8,0.6c0.6,0.8,1.3,1.5,1.9,2.1c-1.1,0.8-2.2,1.2-2.9,1.2c-0.3,0-0.6-0.1-0.8-0.2c-0.8-0.4-1.2-1.8-1-3.5
	C8.8,20.3,8.8,20.2,8.8,20.1z M21.2,20.1c0,0.1,0,0.1,0,0.2c0.1,1.8-0.3,3.1-1,3.5c-0.2,0.1-0.5,0.2-0.8,0.2c-0.8,0-1.8-0.4-2.9-1.2
	c0.7-0.6,1.3-1.3,1.9-2.1C19.3,20.6,20.3,20.4,21.2,20.1z M14.2,21c0.3,0,0.5,0,0.8,0s0.5,0,0.8,0c-0.3,0.3-0.5,0.5-0.8,0.8
	C14.7,21.5,14.5,21.3,14.2,21z"/>
</svg>
