<?xml version="1.0" encoding="utf-8"?>
<!-- Generator: Adobe Illustrator 25.1.0, SVG Export Plug-In . SVG Version: 6.00 Build 0)  -->
<svg version="1.1" id="Layer_1" xmlns="http://www.w3.org/2000/svg" xmlns:xlink="http://www.w3.org/1999/xlink" x="0px" y="0px"
	 viewBox="0 0 50 50" style="enable-background:new 0 0 50 50;" xml:space="preserve">
<style type="text/css">
	.st0{fill:#273F6A;}
</style>
<path class="st0" d="M43,27.8c-1.7,0-3.3,0.4-4.5,1.1c-0.5-0.9-0.9-1.7-1-2.3c-0.1-0.7-0.2-1.1-0.1-2s0.6-2,0.6-2.1
	c0-0.1-0.1-0.5-1.1-0.5c-1,0-1.9,0.2-2,0.5c-0.1,0.3-0.3,0.9-0.4,1.5c-0.2,0.9-2,4.2-3.1,5.9c-0.3-0.7-0.6-1.3-0.7-1.7
	c-0.1-0.7-0.2-1.1-0.1-2s0.6-2,0.6-2.1c0-0.1-0.1-0.5-1.1-0.5c-1,0-1.9,0.2-2,0.5c-0.1,0.3-0.2,0.9-0.4,1.5c-0.2,0.6-2.6,6-3.3,7.4
	c-0.3,0.7-0.6,1.3-0.8,1.7c0,0,0,0,0,0s0,0,0,0.1c-0.2,0.3-0.3,0.5-0.3,0.5s0,0,0,0c-0.1,0.2-0.3,0.5-0.4,0.5c0,0-0.2-0.7,0-1.6
	c0.4-1.9,1.2-4.8,1.2-4.9c0-0.1,0.2-0.6-0.6-0.8c-0.7-0.3-1,0.2-1,0.2c-0.1,0-0.1,0.2-0.1,0.2s0.8-3.3-1.5-3.3c-1.4,0-3.4,1.6-4.4,3
	c-0.6,0.3-1.9,1.1-3.4,1.8c-0.5,0.3-1.1,0.6-1.6,0.9c0,0-0.1-0.1-0.1-0.1c-2.8-3-8-5.1-7.7-9.1c0.1-1.5,0.6-5.3,9.9-9.9
	C21.3,8,27.5,9,28.5,11.4c1.5,3.3-3.3,9.5-11.2,10.4c-3,0.3-4.6-0.8-5-1.3c-0.4-0.5-0.5-0.5-0.6-0.4c-0.3,0.1-0.1,0.5,0,0.8
	c0.2,0.6,1.2,1.7,2.9,2.3c1.5,0.5,5,0.7,9.3-0.9c4.8-1.9,8.6-7,7.5-11.4C30.2,6.4,22.9,5,16,7.4c-4.1,1.5-8.6,3.8-11.8,6.7
	c-3.8,3.6-4.4,6.7-4.2,8c0.9,4.6,7.2,7.6,9.8,9.8c-0.1,0.1-0.2,0.1-0.4,0.2c-1.3,0.6-6.1,3.2-7.3,5.8c-1.4,3,0.2,5.2,1.3,5.5
	c3.3,0.9,6.6-0.7,8.4-3.4c1.8-2.7,1.6-6.2,0.8-7.8c0,0,0,0,0-0.1c0.3-0.2,0.7-0.4,1-0.6c0.6-0.4,1.3-0.7,1.8-1
	c-0.3,0.8-0.5,1.9-0.7,3.3c-0.1,1.7,0.6,3.9,1.5,4.8c0.4,0.4,0.9,0.4,1.2,0.4c1.1,0,1.6-0.9,2.1-2c0.7-1.3,1.2-2.8,1.2-2.8
	S20,38.5,22,38.5c0.7,0,1.5-0.9,1.8-1.4c0,0,0,0,0,0s0,0,0.1-0.1c0.1-0.1,0.1-0.2,0.1-0.2s0,0,0,0c0.3-0.5,0.9-1.7,1.9-3.6
	c1.3-2.5,2.5-5.6,2.5-5.6s0.1,0.8,0.5,2c0.2,0.7,0.7,1.6,1,2.3c-0.3,0.4-0.5,0.6-0.5,0.6s0,0,0,0c-0.2,0.3-0.5,0.6-0.8,1
	c-1,1.2-2.2,2.5-2.3,2.9c-0.2,0.5-0.1,0.8,0.2,1.1c0.3,0.2,0.7,0.2,1.2,0.2c0.9-0.1,1.5-0.3,1.8-0.4c0.5-0.2,1-0.4,1.6-0.8
	c1-0.7,1.6-1.7,1.5-3.1c0-0.8-0.3-1.5-0.6-2.2c0.1-0.1,0.2-0.3,0.3-0.4c1.5-2.3,2.7-4.7,2.7-4.7s0.1,0.8,0.5,2
	c0.2,0.6,0.6,1.3,0.9,2c-1.5,1.2-2.3,2.5-2.7,3.4c-0.6,1.7-0.1,2.4,0.7,2.6c0.4,0.1,0.9-0.1,1.3-0.3c0.5-0.2,1.1-0.4,1.7-0.9
	c1-0.7,1.9-1.7,1.9-3.1c0-0.6-0.2-1.2-0.4-1.8c1.2-0.5,2.8-0.8,4.8-0.6c4.3,0.5,5.2,3.2,5,4.4c-0.2,1.1-1.1,1.8-1.4,2
	s-0.4,0.3-0.4,0.4c0,0.2,0.2,0.2,0.4,0.2c0.4-0.1,2.3-0.9,2.4-3C50.1,30.7,47.5,27.8,43,27.8z M9.5,39.1c-1.4,1.6-3.5,2.2-4.3,1.7
	c-0.9-0.5-0.6-2.9,1.2-4.5c1.1-1,2.5-2,3.4-2.5c0.2-0.1,0.5-0.3,0.9-0.5c0.1,0,0.1-0.1,0.1-0.1l0,0c0.1,0,0.1-0.1,0.2-0.1
	C11.6,35.4,11,37.5,9.5,39.1z M20,32c-0.5,1.2-1.6,4.4-2.2,4.2c-0.5-0.1-0.9-2.5-0.1-4.9c0.4-1.2,1.2-2.6,1.7-3.1
	c0.8-0.9,1.7-1.2,1.9-0.8C21.5,27.8,20.3,31.2,20,32z M28.7,36.1c-0.2,0.1-0.4,0.2-0.5,0.1c-0.1,0,0.1-0.2,0.1-0.2s1.1-1.2,1.5-1.7
	c0.2-0.3,0.5-0.7,0.9-1.1c0,0,0,0.1,0,0.1C30.6,34.8,29.3,35.7,28.7,36.1z M35.4,34.6c-0.2-0.1-0.1-0.5,0.4-1.6
	c0.2-0.4,0.7-1.2,1.5-1.9c0.1,0.3,0.2,0.6,0.2,0.8C37.4,33.7,36.1,34.3,35.4,34.6z"/>
</svg>
